<mxfile host="app.diagrams.net" modified="2024-04-29T14:57:58.472Z" agent="Mozilla/5.0 (Windows NT 10.0; Win64; x64; rv:125.0) Gecko/20100101 Firefox/125.0" etag="8UBn3YCh37JmGSTm8eTl" version="24.3.1" type="device">
  <diagram name="Seite-1" id="2GbJ69CeaZARCeV16seF">
    <mxGraphModel dx="1664" dy="979" grid="1" gridSize="10" guides="1" tooltips="1" connect="1" arrows="1" fold="1" page="1" pageScale="1" pageWidth="827" pageHeight="1169" math="0" shadow="0">
      <root>
        <mxCell id="0" />
        <mxCell id="1" parent="0" />
        <mxCell id="ILymtco374YWt3FrOXW9-4" value="" style="rounded=0;whiteSpace=wrap;html=1;fillColor=#f5f5f5;strokeColor=#666666;fontColor=#333333;" vertex="1" parent="1">
          <mxGeometry x="770" y="39" width="780" height="1201" as="geometry" />
        </mxCell>
        <mxCell id="ILymtco374YWt3FrOXW9-5" value="&lt;h1 style=&quot;margin-top: 0px;&quot;&gt;CORE&lt;/h1&gt;" style="text;html=1;whiteSpace=wrap;overflow=hidden;rounded=0;" vertex="1" parent="1">
          <mxGeometry x="785" y="69" width="250" height="50" as="geometry" />
        </mxCell>
        <mxCell id="ILymtco374YWt3FrOXW9-1" value="" style="rounded=0;whiteSpace=wrap;html=1;" vertex="1" parent="1">
          <mxGeometry x="810" y="139" width="570" height="260" as="geometry" />
        </mxCell>
        <mxCell id="ILymtco374YWt3FrOXW9-3" value="&lt;h1 style=&quot;margin-top: 0px;&quot;&gt;VM LinuxMuster&lt;/h1&gt;" style="text;html=1;whiteSpace=wrap;overflow=hidden;rounded=0;" vertex="1" parent="1">
          <mxGeometry x="820" y="159" width="250" height="40" as="geometry" />
        </mxCell>
        <mxCell id="ILymtco374YWt3FrOXW9-6" value="" style="rounded=0;whiteSpace=wrap;html=1;" vertex="1" parent="1">
          <mxGeometry x="810" y="419" width="570" height="781" as="geometry" />
        </mxCell>
        <mxCell id="ILymtco374YWt3FrOXW9-7" value="&lt;h1 style=&quot;margin-top: 0px;&quot;&gt;NEW&lt;/h1&gt;" style="text;html=1;whiteSpace=wrap;overflow=hidden;rounded=0;" vertex="1" parent="1">
          <mxGeometry x="830" y="960" width="250" height="50" as="geometry" />
        </mxCell>
        <mxCell id="ILymtco374YWt3FrOXW9-24" style="edgeStyle=orthogonalEdgeStyle;rounded=0;orthogonalLoop=1;jettySize=auto;html=1;exitX=1;exitY=0.25;exitDx=0;exitDy=0;entryX=0;entryY=0.5;entryDx=0;entryDy=0;fillColor=#dae8fc;strokeColor=#6c8ebf;" edge="1" parent="1" source="ILymtco374YWt3FrOXW9-10" target="ILymtco374YWt3FrOXW9-11">
          <mxGeometry relative="1" as="geometry">
            <Array as="points">
              <mxPoint x="510" y="360" />
              <mxPoint x="640" y="360" />
              <mxPoint x="640" y="220" />
            </Array>
          </mxGeometry>
        </mxCell>
        <mxCell id="ILymtco374YWt3FrOXW9-25" value="&lt;div&gt;server.DOMAIN&lt;/div&gt;" style="edgeLabel;html=1;align=center;verticalAlign=middle;resizable=0;points=[];" vertex="1" connectable="0" parent="ILymtco374YWt3FrOXW9-24">
          <mxGeometry x="-0.4206" y="-3" relative="1" as="geometry">
            <mxPoint x="57" y="-54" as="offset" />
          </mxGeometry>
        </mxCell>
        <mxCell id="ILymtco374YWt3FrOXW9-26" style="edgeStyle=orthogonalEdgeStyle;rounded=0;orthogonalLoop=1;jettySize=auto;html=1;exitX=1;exitY=0.5;exitDx=0;exitDy=0;entryX=-0.003;entryY=0.19;entryDx=0;entryDy=0;entryPerimeter=0;fillColor=#dae8fc;strokeColor=#6c8ebf;" edge="1" parent="1" source="ILymtco374YWt3FrOXW9-10" target="ILymtco374YWt3FrOXW9-13">
          <mxGeometry relative="1" as="geometry">
            <Array as="points">
              <mxPoint x="640" y="389" />
              <mxPoint x="640" y="580" />
              <mxPoint x="990" y="580" />
            </Array>
          </mxGeometry>
        </mxCell>
        <mxCell id="ILymtco374YWt3FrOXW9-27" value="&lt;div&gt;auth.DOMAIN&lt;/div&gt;&lt;div&gt;&lt;strike style=&quot;background-color: rgb(48, 255, 124);&quot;&gt;Login&lt;/strike&gt;&lt;br&gt;&lt;/div&gt;" style="edgeLabel;html=1;align=center;verticalAlign=middle;resizable=0;points=[];" vertex="1" connectable="0" parent="ILymtco374YWt3FrOXW9-26">
          <mxGeometry x="-0.3718" relative="1" as="geometry">
            <mxPoint x="50" y="98" as="offset" />
          </mxGeometry>
        </mxCell>
        <mxCell id="ILymtco374YWt3FrOXW9-29" style="edgeStyle=orthogonalEdgeStyle;rounded=0;orthogonalLoop=1;jettySize=auto;html=1;exitX=1;exitY=0.75;exitDx=0;exitDy=0;entryX=0;entryY=0.5;entryDx=0;entryDy=0;fillColor=#dae8fc;strokeColor=#6c8ebf;" edge="1" parent="1" target="ILymtco374YWt3FrOXW9-14">
          <mxGeometry relative="1" as="geometry">
            <mxPoint x="510" y="434.00000000000045" as="sourcePoint" />
            <mxPoint x="1020" y="723.9999999999995" as="targetPoint" />
            <Array as="points">
              <mxPoint x="510" y="430" />
              <mxPoint x="590" y="430" />
              <mxPoint x="590" y="739" />
            </Array>
          </mxGeometry>
        </mxCell>
        <mxCell id="ILymtco374YWt3FrOXW9-31" value="&lt;div&gt;ui.DOMAIN&lt;/div&gt;&lt;div&gt;(https)&lt;br&gt;&lt;/div&gt;" style="edgeLabel;html=1;align=center;verticalAlign=middle;resizable=0;points=[];" vertex="1" connectable="0" parent="ILymtco374YWt3FrOXW9-29">
          <mxGeometry x="-0.4075" y="2" relative="1" as="geometry">
            <mxPoint x="98" y="179" as="offset" />
          </mxGeometry>
        </mxCell>
        <mxCell id="ILymtco374YWt3FrOXW9-10" value="&lt;div&gt;OPNsense&lt;br&gt;&lt;/div&gt;&lt;div&gt;firewall&lt;br&gt;&lt;/div&gt;" style="rounded=0;whiteSpace=wrap;html=1;" vertex="1" parent="1">
          <mxGeometry x="330" y="330" width="180" height="110" as="geometry" />
        </mxCell>
        <mxCell id="ILymtco374YWt3FrOXW9-11" value="&lt;div&gt;LMN - API&lt;/div&gt;&lt;div&gt;(Schulconsole)&lt;br&gt;&lt;/div&gt;" style="rounded=0;whiteSpace=wrap;html=1;" vertex="1" parent="1">
          <mxGeometry x="1020" y="190" width="120" height="60" as="geometry" />
        </mxCell>
        <mxCell id="ILymtco374YWt3FrOXW9-12" value="&lt;div&gt;&lt;b&gt;SHOULD BE:&lt;/b&gt;&lt;br&gt;&lt;/div&gt;&lt;div&gt;File Server&lt;br&gt;&lt;/div&gt;" style="rounded=0;whiteSpace=wrap;html=1;fillColor=#d5e8d4;strokeColor=#82b366;" vertex="1" parent="1">
          <mxGeometry x="1093" y="290" width="120" height="80" as="geometry" />
        </mxCell>
        <mxCell id="ILymtco374YWt3FrOXW9-37" style="edgeStyle=orthogonalEdgeStyle;rounded=0;orthogonalLoop=1;jettySize=auto;html=1;exitX=0.25;exitY=1;exitDx=0;exitDy=0;entryX=0;entryY=0.5;entryDx=0;entryDy=0;startArrow=none;startFill=0;endArrow=none;endFill=0;fillColor=#f8cecc;strokeColor=#B84706;" edge="1" parent="1">
          <mxGeometry relative="1" as="geometry">
            <mxPoint x="1060" y="624" as="sourcePoint" />
            <mxPoint x="1080" y="649.5" as="targetPoint" />
            <Array as="points">
              <mxPoint x="1060" y="655" />
              <mxPoint x="1080" y="655" />
            </Array>
          </mxGeometry>
        </mxCell>
        <mxCell id="ILymtco374YWt3FrOXW9-13" value="&lt;div&gt;AUTH&lt;/div&gt;&lt;div&gt;Port 8080&lt;br&gt;&lt;/div&gt;" style="rounded=0;whiteSpace=wrap;html=1;" vertex="1" parent="1">
          <mxGeometry x="1030" y="569" width="120" height="60" as="geometry" />
        </mxCell>
        <mxCell id="ILymtco374YWt3FrOXW9-19" style="edgeStyle=orthogonalEdgeStyle;rounded=0;orthogonalLoop=1;jettySize=auto;html=1;startArrow=classic;startFill=1;exitX=1;exitY=0.35;exitDx=0;exitDy=0;exitPerimeter=0;entryX=0.47;entryY=0.011;entryDx=0;entryDy=0;entryPerimeter=0;" edge="1" parent="1" source="ILymtco374YWt3FrOXW9-14" target="ILymtco374YWt3FrOXW9-62">
          <mxGeometry relative="1" as="geometry">
            <mxPoint x="1020.2" y="708.99" as="sourcePoint" />
            <mxPoint x="1020" y="271.48199999999997" as="targetPoint" />
            <Array as="points">
              <mxPoint x="1460" y="730" />
              <mxPoint x="1460" y="271" />
              <mxPoint x="1029" y="271" />
            </Array>
          </mxGeometry>
        </mxCell>
        <mxCell id="ILymtco374YWt3FrOXW9-20" value="&lt;div&gt;&lt;strike style=&quot;background-color: rgb(79, 255, 66);&quot;&gt;Files&lt;/strike&gt;&lt;/div&gt;&lt;div&gt;&lt;strike style=&quot;background-color: rgb(79, 255, 66);&quot;&gt;PPOP find&lt;/strike&gt;&lt;/div&gt;" style="edgeLabel;html=1;align=center;verticalAlign=middle;resizable=0;points=[];" vertex="1" connectable="0" parent="ILymtco374YWt3FrOXW9-19">
          <mxGeometry x="0.0913" y="-2" relative="1" as="geometry">
            <mxPoint as="offset" />
          </mxGeometry>
        </mxCell>
        <mxCell id="ILymtco374YWt3FrOXW9-21" style="edgeStyle=orthogonalEdgeStyle;rounded=0;orthogonalLoop=1;jettySize=auto;html=1;exitX=1;exitY=0.75;exitDx=0;exitDy=0;startArrow=classic;startFill=1;entryX=1;entryY=0.5;entryDx=0;entryDy=0;" edge="1" parent="1" source="ILymtco374YWt3FrOXW9-14" target="ILymtco374YWt3FrOXW9-11">
          <mxGeometry relative="1" as="geometry">
            <mxPoint x="1190" y="664" as="sourcePoint" />
            <mxPoint x="1190" y="229" as="targetPoint" />
            <Array as="points">
              <mxPoint x="1490" y="754" />
              <mxPoint x="1490" y="220" />
            </Array>
          </mxGeometry>
        </mxCell>
        <mxCell id="ILymtco374YWt3FrOXW9-23" value="&lt;div&gt;User INfo&lt;/div&gt;" style="edgeLabel;html=1;align=center;verticalAlign=middle;resizable=0;points=[];" vertex="1" connectable="0" parent="ILymtco374YWt3FrOXW9-21">
          <mxGeometry x="0.2323" y="-2" relative="1" as="geometry">
            <mxPoint as="offset" />
          </mxGeometry>
        </mxCell>
        <mxCell id="ILymtco374YWt3FrOXW9-38" style="edgeStyle=orthogonalEdgeStyle;rounded=0;orthogonalLoop=1;jettySize=auto;html=1;exitX=0.75;exitY=1;exitDx=0;exitDy=0;startArrow=none;startFill=0;endArrow=none;endFill=0;fillColor=#f8cecc;strokeColor=#B84706;entryX=0;entryY=0.5;entryDx=0;entryDy=0;" edge="1" parent="1" target="ILymtco374YWt3FrOXW9-18">
          <mxGeometry relative="1" as="geometry">
            <mxPoint x="1057.5" y="860" as="sourcePoint" />
            <mxPoint x="1080" y="900" as="targetPoint" />
            <Array as="points">
              <mxPoint x="1057" y="885" />
            </Array>
          </mxGeometry>
        </mxCell>
        <mxCell id="ILymtco374YWt3FrOXW9-43" style="edgeStyle=orthogonalEdgeStyle;rounded=0;orthogonalLoop=1;jettySize=auto;html=1;exitX=0.157;exitY=-0.01;exitDx=0;exitDy=0;entryX=0;entryY=0.75;entryDx=0;entryDy=0;fillColor=#dae8fc;strokeColor=#6c8ebf;exitPerimeter=0;" edge="1" parent="1" source="ILymtco374YWt3FrOXW9-14" target="ILymtco374YWt3FrOXW9-13">
          <mxGeometry relative="1" as="geometry">
            <Array as="points">
              <mxPoint x="920" y="708" />
              <mxPoint x="920" y="614" />
            </Array>
          </mxGeometry>
        </mxCell>
        <mxCell id="ILymtco374YWt3FrOXW9-44" value="&lt;div&gt;proxy forward&lt;/div&gt;&lt;div&gt;&lt;span style=&quot;background-color: rgb(48, 255, 124);&quot;&gt;Login&lt;/span&gt;&lt;br&gt;&lt;/div&gt;" style="edgeLabel;html=1;align=center;verticalAlign=middle;resizable=0;points=[];" vertex="1" connectable="0" parent="ILymtco374YWt3FrOXW9-43">
          <mxGeometry x="-0.1778" relative="1" as="geometry">
            <mxPoint y="25" as="offset" />
          </mxGeometry>
        </mxCell>
        <mxCell id="ILymtco374YWt3FrOXW9-45" style="edgeStyle=orthogonalEdgeStyle;rounded=0;orthogonalLoop=1;jettySize=auto;html=1;exitX=0.155;exitY=1.011;exitDx=0;exitDy=0;entryX=-0.003;entryY=0.818;entryDx=0;entryDy=0;fillColor=#dae8fc;strokeColor=#6c8ebf;exitPerimeter=0;entryPerimeter=0;" edge="1" parent="1" source="ILymtco374YWt3FrOXW9-14" target="ILymtco374YWt3FrOXW9-15">
          <mxGeometry relative="1" as="geometry" />
        </mxCell>
        <mxCell id="ILymtco374YWt3FrOXW9-46" value="proxy forward" style="edgeLabel;html=1;align=center;verticalAlign=middle;resizable=0;points=[];" vertex="1" connectable="0" parent="ILymtco374YWt3FrOXW9-45">
          <mxGeometry x="-0.4" y="1" relative="1" as="geometry">
            <mxPoint x="53" y="23" as="offset" />
          </mxGeometry>
        </mxCell>
        <mxCell id="ILymtco374YWt3FrOXW9-14" value="&lt;div&gt;UI&lt;/div&gt;&lt;div&gt;Port: 443 v 4300&lt;br&gt;&lt;/div&gt;&lt;div&gt;(nginx)&lt;br&gt;&lt;/div&gt;" style="rounded=0;whiteSpace=wrap;html=1;" vertex="1" parent="1">
          <mxGeometry x="900" y="709" width="120" height="60" as="geometry" />
        </mxCell>
        <mxCell id="ILymtco374YWt3FrOXW9-49" style="edgeStyle=orthogonalEdgeStyle;rounded=0;orthogonalLoop=1;jettySize=auto;html=1;exitX=1;exitY=0.25;exitDx=0;exitDy=0;entryX=1.027;entryY=0.595;entryDx=0;entryDy=0;fillColor=#f8cecc;strokeColor=#030101;entryPerimeter=0;" edge="1" parent="1" source="ILymtco374YWt3FrOXW9-15" target="ILymtco374YWt3FrOXW9-13">
          <mxGeometry relative="1" as="geometry">
            <Array as="points">
              <mxPoint x="1300" y="815" />
              <mxPoint x="1300" y="605" />
              <mxPoint x="1153" y="605" />
            </Array>
          </mxGeometry>
        </mxCell>
        <mxCell id="ILymtco374YWt3FrOXW9-50" value="&lt;strike style=&quot;background-color: rgb(48, 255, 124);&quot;&gt;&lt;b&gt;&lt;font style=&quot;font-size: 13px;&quot;&gt;token valid?&lt;/font&gt;&lt;/b&gt;&lt;/strike&gt;" style="edgeLabel;html=1;align=center;verticalAlign=middle;resizable=0;points=[];" vertex="1" connectable="0" parent="ILymtco374YWt3FrOXW9-49">
          <mxGeometry x="0.0164" y="-1" relative="1" as="geometry">
            <mxPoint y="67" as="offset" />
          </mxGeometry>
        </mxCell>
        <mxCell id="ILymtco374YWt3FrOXW9-64" style="edgeStyle=orthogonalEdgeStyle;rounded=0;orthogonalLoop=1;jettySize=auto;html=1;exitX=1;exitY=0.75;exitDx=0;exitDy=0;entryX=1.008;entryY=0.581;entryDx=0;entryDy=0;entryPerimeter=0;fillColor=#d5e8d4;strokeColor=#82b366;startArrow=classic;startFill=1;" edge="1" parent="1" source="ILymtco374YWt3FrOXW9-15" target="ILymtco374YWt3FrOXW9-12">
          <mxGeometry relative="1" as="geometry">
            <Array as="points">
              <mxPoint x="1420" y="845" />
              <mxPoint x="1420" y="336" />
              <mxPoint x="1214" y="336" />
            </Array>
          </mxGeometry>
        </mxCell>
        <mxCell id="ILymtco374YWt3FrOXW9-66" value="webdav" style="edgeLabel;html=1;align=center;verticalAlign=middle;resizable=0;points=[];" vertex="1" connectable="0" parent="ILymtco374YWt3FrOXW9-64">
          <mxGeometry x="0.2444" y="-1" relative="1" as="geometry">
            <mxPoint y="31" as="offset" />
          </mxGeometry>
        </mxCell>
        <mxCell id="ILymtco374YWt3FrOXW9-15" value="&lt;div&gt;EDU - API&lt;/div&gt;" style="rounded=0;whiteSpace=wrap;html=1;" vertex="1" parent="1">
          <mxGeometry x="1030" y="800" width="120" height="60" as="geometry" />
        </mxCell>
        <mxCell id="ILymtco374YWt3FrOXW9-47" style="edgeStyle=orthogonalEdgeStyle;rounded=0;orthogonalLoop=1;jettySize=auto;html=1;exitX=1;exitY=0.25;exitDx=0;exitDy=0;endArrow=none;endFill=0;startArrow=classic;startFill=1;" edge="1" parent="1" source="ILymtco374YWt3FrOXW9-13" target="ILymtco374YWt3FrOXW9-12">
          <mxGeometry relative="1" as="geometry">
            <Array as="points">
              <mxPoint x="1200" y="584" />
              <mxPoint x="1200" y="480" />
              <mxPoint x="1080" y="480" />
            </Array>
          </mxGeometry>
        </mxCell>
        <mxCell id="ILymtco374YWt3FrOXW9-48" value="LDAP" style="edgeLabel;html=1;align=center;verticalAlign=middle;resizable=0;points=[];" vertex="1" connectable="0" parent="ILymtco374YWt3FrOXW9-47">
          <mxGeometry x="0.1713" y="2" relative="1" as="geometry">
            <mxPoint y="-3" as="offset" />
          </mxGeometry>
        </mxCell>
        <mxCell id="ILymtco374YWt3FrOXW9-17" value="PostrcreSQL" style="rounded=0;whiteSpace=wrap;html=1;fillColor=#ffe6cc;strokeColor=#d79b00;" vertex="1" parent="1">
          <mxGeometry x="1080" y="640" width="120" height="29" as="geometry" />
        </mxCell>
        <mxCell id="ILymtco374YWt3FrOXW9-18" value="&lt;div&gt;MongoDB&lt;/div&gt;" style="rounded=0;whiteSpace=wrap;html=1;fillColor=#ffe6cc;strokeColor=#d79b00;" vertex="1" parent="1">
          <mxGeometry x="1080" y="870" width="110" height="30" as="geometry" />
        </mxCell>
        <mxCell id="ILymtco374YWt3FrOXW9-33" style="edgeStyle=orthogonalEdgeStyle;rounded=0;orthogonalLoop=1;jettySize=auto;html=1;exitX=0;exitY=0.558;exitDx=0;exitDy=0;entryX=1.005;entryY=0.721;entryDx=0;entryDy=0;entryPerimeter=0;exitPerimeter=0;" edge="1" parent="1" source="ILymtco374YWt3FrOXW9-13" target="ILymtco374YWt3FrOXW9-10">
          <mxGeometry relative="1" as="geometry">
            <Array as="points">
              <mxPoint x="1030" y="599" />
              <mxPoint x="620" y="599" />
              <mxPoint x="620" y="410" />
              <mxPoint x="550" y="410" />
            </Array>
          </mxGeometry>
        </mxCell>
        <mxCell id="ILymtco374YWt3FrOXW9-34" value="&lt;div&gt;TOKEN&lt;/div&gt;" style="edgeLabel;html=1;align=center;verticalAlign=middle;resizable=0;points=[];" vertex="1" connectable="0" parent="ILymtco374YWt3FrOXW9-33">
          <mxGeometry x="-0.2292" y="2" relative="1" as="geometry">
            <mxPoint x="-18" y="-2" as="offset" />
          </mxGeometry>
        </mxCell>
        <mxCell id="ILymtco374YWt3FrOXW9-40" value="VM-Docker" style="rounded=0;whiteSpace=wrap;html=1;fillColor=#d5e8d4;strokeColor=#82b366;" vertex="1" parent="1">
          <mxGeometry x="840" y="1010" width="120" height="60" as="geometry" />
        </mxCell>
        <mxCell id="ILymtco374YWt3FrOXW9-41" value="&lt;div&gt;Doku Portal&lt;/div&gt;" style="rounded=0;whiteSpace=wrap;html=1;fillColor=#d5e8d4;strokeColor=#82b366;" vertex="1" parent="1">
          <mxGeometry x="973" y="1090" width="120" height="60" as="geometry" />
        </mxCell>
        <mxCell id="ILymtco374YWt3FrOXW9-42" value="&lt;div&gt;OnlyOffice&lt;/div&gt;&lt;div&gt;(Public, Extern)&lt;/div&gt;" style="rounded=0;whiteSpace=wrap;html=1;fillColor=#d5e8d4;strokeColor=#82b366;" vertex="1" parent="1">
          <mxGeometry x="973" y="1010" width="120" height="60" as="geometry" />
        </mxCell>
        <mxCell id="ILymtco374YWt3FrOXW9-55" value="" style="shape=flexArrow;endArrow=classic;html=1;rounded=0;entryX=0;entryY=0.5;entryDx=0;entryDy=0;fillColor=#dae8fc;strokeColor=#6c8ebf;" edge="1" parent="1" target="ILymtco374YWt3FrOXW9-10">
          <mxGeometry width="50" height="50" relative="1" as="geometry">
            <mxPoint x="170" y="385" as="sourcePoint" />
            <mxPoint x="740" y="639" as="targetPoint" />
          </mxGeometry>
        </mxCell>
        <mxCell id="ILymtco374YWt3FrOXW9-56" value="BBB" style="rounded=0;whiteSpace=wrap;html=1;fillColor=#d5e8d4;strokeColor=#82b366;" vertex="1" parent="1">
          <mxGeometry x="1230" y="1010" width="120" height="60" as="geometry" />
        </mxCell>
        <mxCell id="ILymtco374YWt3FrOXW9-57" value="Matrix" style="rounded=0;whiteSpace=wrap;html=1;fillColor=#d5e8d4;strokeColor=#82b366;" vertex="1" parent="1">
          <mxGeometry x="840" y="1090" width="120" height="60" as="geometry" />
        </mxCell>
        <mxCell id="ILymtco374YWt3FrOXW9-58" value="&lt;h1 style=&quot;margin-top: 0px;&quot;&gt;VM 2&lt;/h1&gt;" style="text;html=1;whiteSpace=wrap;overflow=hidden;rounded=0;" vertex="1" parent="1">
          <mxGeometry x="830" y="439" width="250" height="50" as="geometry" />
        </mxCell>
        <mxCell id="ILymtco374YWt3FrOXW9-59" value="&lt;div&gt;Mailcow&lt;/div&gt;&lt;div&gt;&lt;div&gt;(Public, Extern)&lt;/div&gt;&lt;/div&gt;" style="rounded=0;whiteSpace=wrap;html=1;fillColor=#d5e8d4;strokeColor=#82b366;" vertex="1" parent="1">
          <mxGeometry x="1100" y="1010" width="120" height="60" as="geometry" />
        </mxCell>
        <mxCell id="ILymtco374YWt3FrOXW9-60" style="edgeStyle=orthogonalEdgeStyle;rounded=0;orthogonalLoop=1;jettySize=auto;html=1;exitX=0.75;exitY=1;exitDx=0;exitDy=0;startArrow=none;startFill=0;endArrow=none;endFill=0;fillColor=#d5e8d4;strokeColor=#82b366;entryX=0;entryY=0.5;entryDx=0;entryDy=0;" edge="1" parent="1" target="ILymtco374YWt3FrOXW9-61">
          <mxGeometry relative="1" as="geometry">
            <mxPoint x="1057.5" y="885" as="sourcePoint" />
            <mxPoint x="1070" y="940" as="targetPoint" />
            <Array as="points">
              <mxPoint x="1057" y="925" />
            </Array>
          </mxGeometry>
        </mxCell>
        <mxCell id="ILymtco374YWt3FrOXW9-61" value="IMAP" style="rounded=0;whiteSpace=wrap;html=1;fillColor=#d5e8d4;strokeColor=#82b366;" vertex="1" parent="1">
          <mxGeometry x="1080" y="910" width="110" height="30" as="geometry" />
        </mxCell>
        <mxCell id="ILymtco374YWt3FrOXW9-62" value="&lt;div&gt;&lt;strike style=&quot;background-color: rgb(48, 255, 124);&quot;&gt;WEBDAV&lt;/strike&gt;&lt;/div&gt;" style="rounded=0;whiteSpace=wrap;html=1;" vertex="1" parent="1">
          <mxGeometry x="973" y="289" width="120" height="81" as="geometry" />
        </mxCell>
        <mxCell id="ILymtco374YWt3FrOXW9-69" value="&lt;h1&gt;&lt;font style=&quot;font-size: 34px;&quot; color=&quot;#08ff39&quot;&gt;Planned Changes&amp;nbsp;&lt;/font&gt;&lt;/h1&gt;&lt;h1&gt;&lt;font style=&quot;font-size: 34px;&quot; color=&quot;#08ff39&quot;&gt;(in green)&lt;/font&gt;&lt;/h1&gt;" style="text;html=1;whiteSpace=wrap;overflow=hidden;rounded=0;" vertex="1" parent="1">
          <mxGeometry x="190" y="60" width="370" height="160" as="geometry" />
        </mxCell>
        <mxCell id="ILymtco374YWt3FrOXW9-71" value="" style="endArrow=classic;html=1;rounded=0;entryX=-0.008;entryY=0.329;entryDx=0;entryDy=0;entryPerimeter=0;exitX=0.25;exitY=1;exitDx=0;exitDy=0;startArrow=classic;startFill=1;endFill=1;fillColor=#d5e8d4;strokeColor=#82b366;" edge="1" parent="1" source="ILymtco374YWt3FrOXW9-14" target="ILymtco374YWt3FrOXW9-15">
          <mxGeometry width="50" height="50" relative="1" as="geometry">
            <mxPoint x="970" y="819" as="sourcePoint" />
            <mxPoint x="1020" y="769" as="targetPoint" />
            <Array as="points">
              <mxPoint x="930" y="820" />
              <mxPoint x="953" y="820" />
            </Array>
          </mxGeometry>
        </mxCell>
        <mxCell id="ILymtco374YWt3FrOXW9-72" value="&lt;div style=&quot;&quot;&gt;Rest-API&lt;/div&gt;&lt;div style=&quot;font-size: 9px;&quot;&gt;&lt;font style=&quot;font-size: 9px;&quot;&gt;bearer: token&lt;/font&gt;,&lt;br&gt;&lt;/div&gt;&lt;font style=&quot;font-size: 8px;&quot;&gt;getDocs (with Propagate)&lt;/font&gt;" style="edgeLabel;html=1;align=center;verticalAlign=middle;resizable=0;points=[];" vertex="1" connectable="0" parent="ILymtco374YWt3FrOXW9-71">
          <mxGeometry x="0.143" y="-1" relative="1" as="geometry">
            <mxPoint x="8" y="-1" as="offset" />
          </mxGeometry>
        </mxCell>
      </root>
    </mxGraphModel>
  </diagram>
</mxfile>
